<?xml version="1.0" standalone="no"?>
<!DOCTYPE svg PUBLIC "-//W3C//DTD SVG 20010904//EN"
 "http://www.w3.org/TR/2001/REC-SVG-20010904/DTD/svg10.dtd">
<svg version="1.0" xmlns="http://www.w3.org/2000/svg"
 width="32.000000pt" height="32.000000pt" viewBox="0 0 32.000000 32.000000"
 preserveAspectRatio="xMidYMid meet">

<g transform="translate(0.000000,32.000000) scale(0.100000,-0.100000)"
fill="#000000" stroke="none">
<path d="M132 251 c-13 -8 -16 -28 -10 -66 2 -12 -3 -20 -12 -20 -9 0 -14 10
-15 29 0 36 -27 55 -50 36 -10 -8 -15 -23 -12 -37 2 -14 -3 -29 -14 -39 -31
-28 -24 -44 20 -44 33 0 40 -4 43 -22 3 -22 8 -23 78 -23 70 0 75 1 78 23 3
18 10 22 43 22 44 0 51 16 20 44 -11 10 -16 25 -14 39 3 14 -2 29 -12 37 -23
19 -50 1 -50 -35 -1 -29 -18 -44 -30 -26 -3 6 -1 19 4 29 20 37 -30 77 -67 53z
m57 -18 c12 -23 -4 -53 -29 -53 -25 0 -41 29 -29 52 12 23 45 23 58 1z m-103
-42 c-10 -16 -36 -13 -43 5 -8 22 18 37 36 20 7 -8 10 -19 7 -25z m192 10 c-2
-9 -11 -17 -21 -19 -21 -4 -35 27 -17 38 19 12 42 0 38 -19z m-190 -60 c-2
-11 -16 -17 -40 -19 -32 -3 -37 0 -32 13 13 34 78 39 72 6z m116 8 c20 -15 26
-29 24 -48 -3 -25 -5 -26 -68 -26 -63 0 -65 1 -68 26 -3 29 36 69 68 69 10 0
29 -10 44 -21z m97 -10 c9 -17 6 -19 -26 -19 -23 0 -38 5 -42 16 -13 36 49 38
68 3z"/>
</g>
</svg>